<?xml version="1.0" encoding="UTF-8"?>
<svg width="23px" height="24px" viewBox="0 0 23 24" version="1.1" xmlns="http://www.w3.org/2000/svg" xmlns:xlink="http://www.w3.org/1999/xlink">
    <!-- Generator: Sketch 47.1 (45422) - http://www.bohemiancoding.com/sketch -->
    <title>Slice 1</title>
    <desc>Created with Sketch.</desc>
    <defs>
        <linearGradient x1="1.65327333e-07%" y1="102.333072%" x2="-76.21%" y2="28.6490694%" id="linearGradient-1">
            <stop stop-color="#505050" offset="0%"></stop>
            <stop stop-color="#333333" offset="100%"></stop>
        </linearGradient>
        <linearGradient x1="14.2966076%" y1="121.733333%" x2="0.280329711%" y2="10.5996444%" id="linearGradient-2">
            <stop stop-color="#505050" offset="0%"></stop>
            <stop stop-color="#333333" offset="100%"></stop>
        </linearGradient>
    </defs>
    <g id="Page-1" stroke="none" stroke-width="1" fill="none" fill-rule="evenodd">
        <g id="Vector" transform="translate(4.000000, 0.000000)" fill-rule="nonzero" fill="url(#linearGradient-1)">
            <path d="M7.5,0 C3.36053,0 0,3.3239 0,7.41824 C0,11.8363 4.91223,17.9989 6.78577,20.1886 C7.16521,20.6321 7.83479,20.6321 8.21423,20.1886 C10.0878,17.9989 15,11.8363 15,7.41824 C15,3.3239 11.6395,0 7.5,0 Z M7.5,10.6761 C5.67507,10.6761 4.20623,9.22327 4.20623,7.41824 C4.20623,5.61321 5.67507,4.16038 7.5,4.16038 C9.32493,4.16038 10.7938,5.61321 10.7938,7.41824 C10.7938,9.22327 9.30267,10.6761 7.5,10.6761 Z" id="Shape"></path>
        </g>
        <g id="Rectangle-5.6" transform="translate(0.000000, 15.000000)" fill-opacity="0.6" fill-rule="nonzero" fill="url(#linearGradient-2)">
            <path d="M3.37906,0.625805 C3.53166,0.247629 3.89861,0 4.30641,0 L18.6936,0 C19.1014,0 19.4683,0.24763 19.6209,0.625806 L22.4455,7.62581 C22.7107,8.28307 22.2269,9 21.5182,9 L1.48185,9 C0.773095,9 0.289287,8.28307 0.554499,7.62581 L3.37906,0.625805 Z" id="Shape"></path>
        </g>
    </g>
</svg>